%TF.GenerationSoftware,KiCad,Pcbnew,(6.0.0)*%
%TF.CreationDate,2022-07-31T21:28:17+12:00*%
%TF.ProjectId,MOTOR_TERMINAL_BREAKOUT_42,4d4f544f-525f-4544-9552-4d494e414c5f,0A*%
%TF.SameCoordinates,Original*%
%TF.FileFunction,Copper,L1,Top*%
%TF.FilePolarity,Positive*%
%FSLAX46Y46*%
G04 Gerber Fmt 4.6, Leading zero omitted, Abs format (unit mm)*
G04 Created by KiCad (PCBNEW (6.0.0)) date 2022-07-31 21:28:17*
%MOMM*%
%LPD*%
G01*
G04 APERTURE LIST*
G04 Aperture macros list*
%AMRoundRect*
0 Rectangle with rounded corners*
0 $1 Rounding radius*
0 $2 $3 $4 $5 $6 $7 $8 $9 X,Y pos of 4 corners*
0 Add a 4 corners polygon primitive as box body*
4,1,4,$2,$3,$4,$5,$6,$7,$8,$9,$2,$3,0*
0 Add four circle primitives for the rounded corners*
1,1,$1+$1,$2,$3*
1,1,$1+$1,$4,$5*
1,1,$1+$1,$6,$7*
1,1,$1+$1,$8,$9*
0 Add four rect primitives between the rounded corners*
20,1,$1+$1,$2,$3,$4,$5,0*
20,1,$1+$1,$4,$5,$6,$7,0*
20,1,$1+$1,$6,$7,$8,$9,0*
20,1,$1+$1,$8,$9,$2,$3,0*%
%AMHorizOval*
0 Thick line with rounded ends*
0 $1 width*
0 $2 $3 position (X,Y) of the first rounded end (center of the circle)*
0 $4 $5 position (X,Y) of the second rounded end (center of the circle)*
0 Add line between two ends*
20,1,$1,$2,$3,$4,$5,0*
0 Add two circle primitives to create the rounded ends*
1,1,$1,$2,$3*
1,1,$1,$4,$5*%
G04 Aperture macros list end*
%TA.AperFunction,ComponentPad*%
%ADD10HorizOval,2.000000X-1.767767X1.767767X1.767767X-1.767767X0*%
%TD*%
%TA.AperFunction,ComponentPad*%
%ADD11O,7.000000X2.000000*%
%TD*%
%TA.AperFunction,ComponentPad*%
%ADD12O,2.000000X7.000000*%
%TD*%
%TA.AperFunction,ComponentPad*%
%ADD13C,6.400000*%
%TD*%
%TA.AperFunction,ConnectorPad*%
%ADD14C,11.000000*%
%TD*%
%TA.AperFunction,ComponentPad*%
%ADD15HorizOval,2.000000X-1.767767X-1.767767X1.767767X1.767767X0*%
%TD*%
%TA.AperFunction,SMDPad,CuDef*%
%ADD16RoundRect,0.225000X0.225000X0.250000X-0.225000X0.250000X-0.225000X-0.250000X0.225000X-0.250000X0*%
%TD*%
G04 APERTURE END LIST*
D10*
%TO.P,H7,1,1*%
%TO.N,+BATT*%
X232370000Y-137630000D03*
%TD*%
D11*
%TO.P,H8,1,1*%
%TO.N,GND*%
X220000000Y-167500000D03*
%TD*%
%TO.P,H5,1,1*%
%TO.N,+BATT*%
X220000000Y-132500000D03*
%TD*%
D12*
%TO.P,H4,1,1*%
%TO.N,GND*%
X202500000Y-150000000D03*
%TD*%
D13*
%TO.P,H1,1,1*%
%TO.N,+BATT*%
X228500000Y-123500000D03*
D14*
X228500000Y-123500000D03*
%TD*%
D12*
%TO.P,H9,1,1*%
%TO.N,+BATT*%
X237500000Y-150000000D03*
%TD*%
D15*
%TO.P,H3,1,1*%
%TO.N,+BATT*%
X232370000Y-162370000D03*
%TD*%
D13*
%TO.P,H2,1,1*%
%TO.N,GND*%
X211500000Y-123500000D03*
D14*
X211500000Y-123500000D03*
%TD*%
D16*
%TO.P,C1,1*%
%TO.N,+BATT*%
X220775000Y-130250000D03*
%TO.P,C1,2*%
%TO.N,GND*%
X219225000Y-130250000D03*
%TD*%
D15*
%TO.P,H10,1,1*%
%TO.N,GND*%
X207630000Y-137630000D03*
%TD*%
D10*
%TO.P,H6,1,1*%
%TO.N,GND*%
X207630000Y-162370000D03*
%TD*%
%TA.AperFunction,Conductor*%
%TO.N,+BATT*%
G36*
X232480182Y-117701953D02*
G01*
X232485813Y-117701963D01*
X232499642Y-117705143D01*
X232513483Y-117702011D01*
X232527147Y-117702035D01*
X232535165Y-117702305D01*
X232594838Y-117706216D01*
X232726705Y-117714859D01*
X232743045Y-117717010D01*
X232957773Y-117759722D01*
X232973694Y-117763988D01*
X233181011Y-117834363D01*
X233196237Y-117840670D01*
X233392592Y-117937501D01*
X233406866Y-117945742D01*
X233588901Y-118067374D01*
X233601977Y-118077407D01*
X233766583Y-118221763D01*
X233778237Y-118233417D01*
X233922593Y-118398023D01*
X233932626Y-118411099D01*
X234054258Y-118593134D01*
X234062499Y-118607408D01*
X234159330Y-118803763D01*
X234165637Y-118818989D01*
X234236012Y-119026306D01*
X234240278Y-119042227D01*
X234282990Y-119256955D01*
X234285141Y-119273295D01*
X234297787Y-119466230D01*
X234298057Y-119474692D01*
X234298037Y-119485812D01*
X234294857Y-119499642D01*
X234297989Y-119513482D01*
X234297980Y-119518372D01*
X234300000Y-119536448D01*
X234300000Y-132391411D01*
X234296746Y-132419860D01*
X234294858Y-132428006D01*
X234294857Y-132428722D01*
X234296126Y-132434287D01*
X234296523Y-132439679D01*
X234307676Y-132754128D01*
X234311714Y-132867971D01*
X234358352Y-133305015D01*
X234435815Y-133737661D01*
X234436360Y-133739813D01*
X234515111Y-134050786D01*
X234543714Y-134163736D01*
X234681508Y-134581103D01*
X234848505Y-134987668D01*
X234943143Y-135178397D01*
X235042872Y-135379387D01*
X235042879Y-135379401D01*
X235043866Y-135381389D01*
X235266612Y-135760291D01*
X235267871Y-135762123D01*
X235267876Y-135762130D01*
X235514355Y-136120625D01*
X235515625Y-136122472D01*
X235517013Y-136124213D01*
X235517017Y-136124218D01*
X235782321Y-136456918D01*
X235785592Y-136461367D01*
X235788219Y-136466403D01*
X235788453Y-136466676D01*
X235788454Y-136466679D01*
X235788457Y-136466681D01*
X235788684Y-136466947D01*
X235794337Y-136471137D01*
X235795585Y-136472580D01*
X235798383Y-136474898D01*
X235799656Y-136476087D01*
X235799474Y-136476282D01*
X235815526Y-136491566D01*
X236363523Y-137159725D01*
X236366875Y-137163999D01*
X236905393Y-137882030D01*
X236908580Y-137886476D01*
X237415437Y-138627225D01*
X237418427Y-138631805D01*
X237892645Y-139393835D01*
X237895434Y-139398541D01*
X238336144Y-140180462D01*
X238338725Y-140185285D01*
X238745052Y-140985538D01*
X238747423Y-140990467D01*
X239058022Y-141674183D01*
X239118664Y-141807674D01*
X239120813Y-141812693D01*
X239390737Y-142482669D01*
X239456216Y-142645194D01*
X239458150Y-142650311D01*
X239757110Y-143496607D01*
X239758819Y-143501800D01*
X239945750Y-144114432D01*
X240020766Y-144360281D01*
X240022247Y-144365543D01*
X240207651Y-145083433D01*
X240246680Y-145234557D01*
X240247928Y-145239863D01*
X240434442Y-146117847D01*
X240435459Y-146123203D01*
X240437007Y-146132450D01*
X240583683Y-147008434D01*
X240584469Y-147013847D01*
X240694132Y-147904673D01*
X240694682Y-147910116D01*
X240765574Y-148804834D01*
X240765888Y-148810295D01*
X240793994Y-149598316D01*
X240797880Y-149707282D01*
X240797956Y-149712752D01*
X240790985Y-150610256D01*
X240790824Y-150615723D01*
X240744905Y-151512084D01*
X240744507Y-151517540D01*
X240659724Y-152411083D01*
X240659090Y-152416511D01*
X240561378Y-153119970D01*
X240535605Y-153305515D01*
X240534735Y-153310916D01*
X240372777Y-154193739D01*
X240371673Y-154199096D01*
X240171558Y-155074028D01*
X240170223Y-155079333D01*
X239932315Y-155944769D01*
X239930751Y-155950011D01*
X239655506Y-156804307D01*
X239653717Y-156809474D01*
X239438269Y-157390469D01*
X239341646Y-157651030D01*
X239339633Y-157656116D01*
X238991337Y-158483314D01*
X238989105Y-158488309D01*
X238605231Y-159299617D01*
X238602785Y-159304509D01*
X238184063Y-160098384D01*
X238181406Y-160103166D01*
X237728605Y-160878144D01*
X237725744Y-160882806D01*
X237239757Y-161637365D01*
X237236696Y-161641899D01*
X236718396Y-162374682D01*
X236715151Y-162379065D01*
X236197767Y-163047045D01*
X236165533Y-163088661D01*
X236162090Y-163092912D01*
X235582183Y-163777993D01*
X235578609Y-163782034D01*
X234969492Y-164441322D01*
X234965715Y-164445237D01*
X234328585Y-165077438D01*
X234324619Y-165081206D01*
X233660667Y-165685141D01*
X233656542Y-165688733D01*
X232966980Y-166263301D01*
X232962702Y-166266710D01*
X232715709Y-166454968D01*
X232248881Y-166810783D01*
X232244484Y-166813987D01*
X231507669Y-167326599D01*
X231503137Y-167329609D01*
X231433061Y-167373976D01*
X230744801Y-167809737D01*
X230740117Y-167812562D01*
X229961666Y-168259318D01*
X229956864Y-168261937D01*
X229442826Y-168527980D01*
X229159752Y-168674486D01*
X229154846Y-168676892D01*
X228340560Y-169054464D01*
X228335578Y-169056644D01*
X227845406Y-169258565D01*
X227505674Y-169398514D01*
X227500572Y-169400487D01*
X226656635Y-169706007D01*
X226651456Y-169707756D01*
X225795040Y-169976361D01*
X225789834Y-169977871D01*
X224922522Y-170209064D01*
X224917235Y-170210352D01*
X224040720Y-170403679D01*
X224035403Y-170404731D01*
X223151329Y-170559831D01*
X223145930Y-170560657D01*
X222855342Y-170598723D01*
X222255980Y-170677235D01*
X222250543Y-170677827D01*
X221850450Y-170712657D01*
X221356383Y-170755668D01*
X221350944Y-170756022D01*
X220475648Y-170794049D01*
X220454245Y-170794979D01*
X220448776Y-170795098D01*
X220226000Y-170795098D01*
X220157879Y-170775096D01*
X220111386Y-170721440D01*
X220100000Y-170669098D01*
X220100000Y-168826500D01*
X220120002Y-168758379D01*
X220173658Y-168711886D01*
X220226000Y-168700500D01*
X222555970Y-168700500D01*
X222719711Y-168685454D01*
X222725273Y-168683885D01*
X222725275Y-168683885D01*
X222825888Y-168655509D01*
X222932064Y-168625565D01*
X223129947Y-168527980D01*
X223152503Y-168511137D01*
X223302109Y-168399420D01*
X223302110Y-168399420D01*
X223306733Y-168395967D01*
X223456501Y-168233949D01*
X223574236Y-168047350D01*
X223655994Y-167842421D01*
X223661934Y-167812562D01*
X223697911Y-167631691D01*
X223697911Y-167631688D01*
X223699038Y-167626024D01*
X223699450Y-167594594D01*
X223701850Y-167411188D01*
X223701926Y-167405406D01*
X223700947Y-167399708D01*
X223665541Y-167193654D01*
X223665541Y-167193653D01*
X223664562Y-167187957D01*
X223588196Y-166980957D01*
X223571355Y-166952650D01*
X223478340Y-166796306D01*
X223478339Y-166796305D01*
X223475386Y-166791341D01*
X223329910Y-166625457D01*
X223156640Y-166488863D01*
X222961380Y-166386131D01*
X222750667Y-166320703D01*
X222736718Y-166319052D01*
X222575211Y-166299936D01*
X222575205Y-166299936D01*
X222571524Y-166299500D01*
X220226000Y-166299500D01*
X220157879Y-166279498D01*
X220111386Y-166225842D01*
X220100000Y-166173500D01*
X220100000Y-159374221D01*
X220120002Y-159306100D01*
X220173658Y-159259607D01*
X220221932Y-159248287D01*
X220595243Y-159236229D01*
X220595253Y-159236228D01*
X220597276Y-159236163D01*
X221192062Y-159178368D01*
X221194049Y-159178044D01*
X221194052Y-159178044D01*
X221779865Y-159082638D01*
X221779870Y-159082637D01*
X221781878Y-159082310D01*
X222141018Y-158999726D01*
X222362272Y-158948849D01*
X222362279Y-158948847D01*
X222364267Y-158948390D01*
X222936799Y-158777167D01*
X222938716Y-158776456D01*
X223495196Y-158570056D01*
X223495203Y-158570053D01*
X223497088Y-158569354D01*
X223777158Y-158444366D01*
X224040933Y-158326650D01*
X224040939Y-158326647D01*
X224042799Y-158325817D01*
X224044604Y-158324867D01*
X224044615Y-158324862D01*
X224378456Y-158149219D01*
X224571657Y-158047571D01*
X225081456Y-157735777D01*
X225570072Y-157391735D01*
X226035467Y-157016878D01*
X226475703Y-156612770D01*
X226888942Y-156181094D01*
X227273463Y-155723651D01*
X227501305Y-155414049D01*
X227626453Y-155243992D01*
X227626461Y-155243980D01*
X227627663Y-155242347D01*
X227950065Y-154739190D01*
X228239325Y-154216275D01*
X228294491Y-154099307D01*
X228493362Y-153677640D01*
X228493366Y-153677631D01*
X228494237Y-153675784D01*
X228713738Y-153119970D01*
X228896914Y-152551149D01*
X228930857Y-152416516D01*
X228961036Y-152296808D01*
X229043001Y-151971693D01*
X229151390Y-151384018D01*
X229221629Y-150790572D01*
X229253425Y-150193832D01*
X229246646Y-149596283D01*
X229201320Y-149000417D01*
X229174431Y-148810295D01*
X229117923Y-148410753D01*
X229117922Y-148410747D01*
X229117635Y-148408718D01*
X229038510Y-148028307D01*
X228996355Y-147825642D01*
X228996353Y-147825634D01*
X228995941Y-147823653D01*
X228836746Y-147247660D01*
X228640712Y-146683142D01*
X228408657Y-146132450D01*
X228141548Y-145597882D01*
X227931214Y-145237215D01*
X227841531Y-145083433D01*
X227841526Y-145083425D01*
X227840499Y-145081664D01*
X227506765Y-144585951D01*
X227141737Y-144112807D01*
X227140398Y-144111286D01*
X227140391Y-144111277D01*
X226748271Y-143665722D01*
X226746936Y-143664205D01*
X226324010Y-143242016D01*
X225874720Y-142847999D01*
X225873131Y-142846778D01*
X225873117Y-142846766D01*
X225562856Y-142608265D01*
X225400939Y-142483797D01*
X224904644Y-142150929D01*
X224902906Y-142149919D01*
X224902894Y-142149912D01*
X224389657Y-141851800D01*
X224389648Y-141851795D01*
X224387902Y-141850781D01*
X224120385Y-141717693D01*
X223854690Y-141585512D01*
X223854679Y-141585507D01*
X223852868Y-141584606D01*
X223301772Y-141353513D01*
X222736913Y-141158464D01*
X222734963Y-141157929D01*
X222734951Y-141157925D01*
X222347655Y-141051610D01*
X222160643Y-141000274D01*
X222158637Y-140999860D01*
X222158627Y-140999858D01*
X221577355Y-140880012D01*
X221577352Y-140880012D01*
X221575366Y-140879602D01*
X220983522Y-140796950D01*
X220387578Y-140752664D01*
X220236538Y-140749500D01*
X220226000Y-140749500D01*
X220157879Y-140729498D01*
X220111386Y-140675842D01*
X220100000Y-140623500D01*
X220100000Y-129475341D01*
X220120002Y-129407220D01*
X220173658Y-129360727D01*
X220226000Y-129349341D01*
X221462703Y-129349341D01*
X221491142Y-129352592D01*
X221492353Y-129352873D01*
X221492357Y-129352873D01*
X221499304Y-129354483D01*
X221500020Y-129354484D01*
X221506965Y-129352899D01*
X221514033Y-129352108D01*
X221514054Y-129352294D01*
X221518769Y-129351575D01*
X221572167Y-129347367D01*
X221688312Y-129338216D01*
X221693116Y-129337062D01*
X221693118Y-129337062D01*
X221867150Y-129295269D01*
X221867153Y-129295268D01*
X221871967Y-129294112D01*
X221876543Y-129292216D01*
X221876547Y-129292215D01*
X222041889Y-129223718D01*
X222041894Y-129223715D01*
X222046462Y-129221823D01*
X222050676Y-129219241D01*
X222050679Y-129219239D01*
X222203281Y-129125718D01*
X222203283Y-129125717D01*
X222207502Y-129123131D01*
X222351124Y-129000465D01*
X222473790Y-128856843D01*
X222476377Y-128852622D01*
X222569898Y-128700020D01*
X222569900Y-128700017D01*
X222572482Y-128695803D01*
X222574374Y-128691235D01*
X222574377Y-128691230D01*
X222642874Y-128525888D01*
X222642875Y-128525884D01*
X222644771Y-128521308D01*
X222660584Y-128455463D01*
X222687721Y-128342459D01*
X222687721Y-128342457D01*
X222688875Y-128337653D01*
X222702149Y-128169184D01*
X222702926Y-128164155D01*
X222702712Y-128164130D01*
X222703529Y-128157032D01*
X222705142Y-128150077D01*
X222705143Y-128149361D01*
X222703153Y-128140633D01*
X222700000Y-128112624D01*
X222700000Y-119537024D01*
X222701953Y-119519818D01*
X222701963Y-119514187D01*
X222705143Y-119500358D01*
X222702011Y-119486517D01*
X222702035Y-119472853D01*
X222702305Y-119464832D01*
X222714859Y-119273295D01*
X222717010Y-119256955D01*
X222759722Y-119042227D01*
X222763988Y-119026306D01*
X222834363Y-118818989D01*
X222840670Y-118803763D01*
X222937501Y-118607408D01*
X222945742Y-118593134D01*
X223067374Y-118411099D01*
X223077407Y-118398023D01*
X223221763Y-118233417D01*
X223233417Y-118221763D01*
X223398023Y-118077407D01*
X223411099Y-118067374D01*
X223593134Y-117945742D01*
X223607408Y-117937501D01*
X223803763Y-117840670D01*
X223818989Y-117834363D01*
X224026306Y-117763988D01*
X224042227Y-117759722D01*
X224256955Y-117717010D01*
X224273295Y-117714859D01*
X224339858Y-117710496D01*
X224466241Y-117702213D01*
X224474692Y-117701943D01*
X224485812Y-117701963D01*
X224499642Y-117705143D01*
X224513482Y-117702011D01*
X224518372Y-117702020D01*
X224536448Y-117700000D01*
X232462976Y-117700000D01*
X232480182Y-117701953D01*
G37*
%TD.AperFunction*%
%TD*%
%TA.AperFunction,Conductor*%
%TO.N,GND*%
G36*
X215480183Y-117701953D02*
G01*
X215485814Y-117701963D01*
X215499643Y-117705143D01*
X215513485Y-117702011D01*
X215527151Y-117702035D01*
X215535169Y-117702305D01*
X215578473Y-117705143D01*
X215726705Y-117714858D01*
X215743046Y-117717009D01*
X215850412Y-117738365D01*
X215957781Y-117759722D01*
X215973695Y-117763986D01*
X216181011Y-117834360D01*
X216196235Y-117840666D01*
X216215703Y-117850266D01*
X216392594Y-117937499D01*
X216406868Y-117945740D01*
X216588908Y-118067375D01*
X216601982Y-118077407D01*
X216766590Y-118221763D01*
X216778234Y-118233407D01*
X216920095Y-118395169D01*
X216922592Y-118398017D01*
X216932625Y-118411092D01*
X217054260Y-118593132D01*
X217062501Y-118607406D01*
X217159333Y-118803762D01*
X217165640Y-118818989D01*
X217236013Y-119026302D01*
X217240279Y-119042222D01*
X217282991Y-119256954D01*
X217285142Y-119273294D01*
X217297696Y-119464832D01*
X217297787Y-119466226D01*
X217298057Y-119474688D01*
X217298037Y-119485810D01*
X217294857Y-119499641D01*
X217297989Y-119513481D01*
X217297980Y-119518371D01*
X217300000Y-119536447D01*
X217300000Y-128112008D01*
X217296742Y-128140473D01*
X217294858Y-128148598D01*
X217294857Y-128149314D01*
X217296438Y-128156247D01*
X217297228Y-128163316D01*
X217297043Y-128163337D01*
X217297764Y-128168075D01*
X217310700Y-128332694D01*
X217311088Y-128337628D01*
X217312244Y-128342445D01*
X217354010Y-128516489D01*
X217354012Y-128516495D01*
X217355167Y-128521308D01*
X217357060Y-128525879D01*
X217357062Y-128525885D01*
X217425549Y-128691257D01*
X217427443Y-128695830D01*
X217526134Y-128856893D01*
X217529344Y-128860652D01*
X217529348Y-128860657D01*
X217591976Y-128933987D01*
X217648809Y-129000532D01*
X217652564Y-129003739D01*
X217788684Y-129119993D01*
X217788689Y-129119997D01*
X217792448Y-129123207D01*
X217953511Y-129221898D01*
X217958082Y-129223791D01*
X217958084Y-129223792D01*
X218123456Y-129292279D01*
X218123462Y-129292281D01*
X218128033Y-129294174D01*
X218132846Y-129295329D01*
X218132852Y-129295331D01*
X218294786Y-129334191D01*
X218311713Y-129338253D01*
X218316644Y-129338640D01*
X218316647Y-129338641D01*
X218480206Y-129351494D01*
X218485253Y-129352271D01*
X218485278Y-129352058D01*
X218492356Y-129352872D01*
X218499311Y-129354483D01*
X218500027Y-129354484D01*
X218508719Y-129352500D01*
X218536758Y-129349341D01*
X219774000Y-129349341D01*
X219842121Y-129369343D01*
X219888614Y-129422999D01*
X219900000Y-129475341D01*
X219900000Y-131173500D01*
X219879998Y-131241621D01*
X219826342Y-131288114D01*
X219774000Y-131299500D01*
X217444030Y-131299500D01*
X217280289Y-131314546D01*
X217274727Y-131316115D01*
X217274725Y-131316115D01*
X217174112Y-131344491D01*
X217067936Y-131374435D01*
X216870053Y-131472020D01*
X216865427Y-131475474D01*
X216865426Y-131475475D01*
X216697891Y-131600580D01*
X216693267Y-131604033D01*
X216543499Y-131766051D01*
X216425764Y-131952650D01*
X216344006Y-132157579D01*
X216300962Y-132373976D01*
X216300886Y-132379751D01*
X216300886Y-132379755D01*
X216300543Y-132405989D01*
X216298074Y-132594594D01*
X216299053Y-132600291D01*
X216299053Y-132600292D01*
X216303475Y-132626024D01*
X216335438Y-132812043D01*
X216411804Y-133019043D01*
X216524614Y-133208659D01*
X216670090Y-133374543D01*
X216843360Y-133511137D01*
X217038620Y-133613869D01*
X217249333Y-133679297D01*
X217255070Y-133679976D01*
X217424789Y-133700064D01*
X217424795Y-133700064D01*
X217428476Y-133700500D01*
X219774000Y-133700500D01*
X219842121Y-133720502D01*
X219888614Y-133774158D01*
X219900000Y-133826500D01*
X219900000Y-140625779D01*
X219879998Y-140693900D01*
X219826342Y-140740393D01*
X219778068Y-140751713D01*
X219404757Y-140763771D01*
X219404747Y-140763772D01*
X219402724Y-140763837D01*
X218807938Y-140821632D01*
X218805951Y-140821956D01*
X218805948Y-140821956D01*
X218220135Y-140917362D01*
X218220130Y-140917363D01*
X218218122Y-140917690D01*
X218216122Y-140918150D01*
X217637728Y-141051151D01*
X217637721Y-141051153D01*
X217635733Y-141051610D01*
X217063201Y-141222833D01*
X217061285Y-141223544D01*
X217061284Y-141223544D01*
X216504804Y-141429944D01*
X216504797Y-141429947D01*
X216502912Y-141430646D01*
X216501066Y-141431470D01*
X215959067Y-141673350D01*
X215959061Y-141673353D01*
X215957201Y-141674183D01*
X215955396Y-141675133D01*
X215955385Y-141675138D01*
X215693920Y-141812702D01*
X215428343Y-141952429D01*
X214918544Y-142264223D01*
X214429928Y-142608265D01*
X213964533Y-142983122D01*
X213524297Y-143387230D01*
X213111058Y-143818906D01*
X212726537Y-144276349D01*
X212725343Y-144277971D01*
X212725341Y-144277974D01*
X212373547Y-144756008D01*
X212373539Y-144756020D01*
X212372337Y-144757653D01*
X212049935Y-145260810D01*
X211760675Y-145783725D01*
X211759809Y-145785561D01*
X211759806Y-145785567D01*
X211596206Y-146132450D01*
X211505763Y-146324216D01*
X211286262Y-146880030D01*
X211103086Y-147448851D01*
X210956999Y-148028307D01*
X210848610Y-148615982D01*
X210848373Y-148617983D01*
X210848373Y-148617984D01*
X210825612Y-148810295D01*
X210778371Y-149209428D01*
X210746575Y-149806168D01*
X210753354Y-150403717D01*
X210798680Y-150999583D01*
X210798964Y-151001588D01*
X210798964Y-151001592D01*
X210871936Y-151517540D01*
X210882365Y-151591282D01*
X210882779Y-151593272D01*
X210882781Y-151593284D01*
X211003645Y-152174358D01*
X211004059Y-152176347D01*
X211163254Y-152752340D01*
X211276009Y-153077039D01*
X211357225Y-153310916D01*
X211359288Y-153316858D01*
X211591343Y-153867550D01*
X211858452Y-154402118D01*
X212159501Y-154918336D01*
X212493235Y-155414049D01*
X212858263Y-155887193D01*
X212859602Y-155888714D01*
X212859609Y-155888723D01*
X212911259Y-155947411D01*
X213253064Y-156335795D01*
X213675990Y-156757984D01*
X214125280Y-157152001D01*
X214126869Y-157153222D01*
X214126883Y-157153234D01*
X214422327Y-157380345D01*
X214599061Y-157516203D01*
X215095356Y-157849071D01*
X215097094Y-157850081D01*
X215097106Y-157850088D01*
X215610343Y-158148200D01*
X215610352Y-158148205D01*
X215612098Y-158149219D01*
X215879615Y-158282306D01*
X216145310Y-158414488D01*
X216145321Y-158414493D01*
X216147132Y-158415394D01*
X216698228Y-158646487D01*
X217263087Y-158841536D01*
X217265037Y-158842071D01*
X217265049Y-158842075D01*
X217650750Y-158947952D01*
X217839357Y-158999726D01*
X217841363Y-159000140D01*
X217841373Y-159000142D01*
X218422645Y-159119988D01*
X218424634Y-159120398D01*
X219016478Y-159203050D01*
X219612422Y-159247336D01*
X219763462Y-159250500D01*
X219774000Y-159250500D01*
X219842121Y-159270502D01*
X219888614Y-159324158D01*
X219900000Y-159376500D01*
X219900000Y-170669098D01*
X219879998Y-170737219D01*
X219826342Y-170783712D01*
X219774000Y-170795098D01*
X219551224Y-170795098D01*
X219545755Y-170794979D01*
X219524352Y-170794049D01*
X218649056Y-170756022D01*
X218643617Y-170755668D01*
X218149550Y-170712657D01*
X217749457Y-170677827D01*
X217744020Y-170677235D01*
X217144658Y-170598723D01*
X216854070Y-170560657D01*
X216848671Y-170559831D01*
X215964597Y-170404731D01*
X215959280Y-170403679D01*
X215082765Y-170210352D01*
X215077478Y-170209064D01*
X214210166Y-169977871D01*
X214204960Y-169976361D01*
X213348544Y-169707756D01*
X213343365Y-169706007D01*
X212499428Y-169400487D01*
X212494326Y-169398514D01*
X212154594Y-169258565D01*
X211664422Y-169056644D01*
X211659440Y-169054464D01*
X210845154Y-168676892D01*
X210840248Y-168674486D01*
X210043136Y-168261937D01*
X210038334Y-168259318D01*
X209259883Y-167812562D01*
X209255199Y-167809737D01*
X208727854Y-167475857D01*
X208496863Y-167329609D01*
X208492331Y-167326599D01*
X207755516Y-166813987D01*
X207751119Y-166810783D01*
X207037298Y-166266710D01*
X207033020Y-166263301D01*
X206343458Y-165688733D01*
X206339333Y-165685141D01*
X205675381Y-165081206D01*
X205671415Y-165077438D01*
X205034285Y-164445237D01*
X205030508Y-164441322D01*
X204421391Y-163782034D01*
X204417817Y-163777993D01*
X203837910Y-163092912D01*
X203834467Y-163088661D01*
X203802233Y-163047045D01*
X203284849Y-162379065D01*
X203281604Y-162374682D01*
X202763304Y-161641899D01*
X202760243Y-161637365D01*
X202274256Y-160882806D01*
X202271395Y-160878144D01*
X201818594Y-160103166D01*
X201815937Y-160098384D01*
X201397215Y-159304509D01*
X201394769Y-159299617D01*
X201010895Y-158488309D01*
X201008663Y-158483314D01*
X200980065Y-158415394D01*
X200660360Y-157656099D01*
X200658354Y-157651030D01*
X200473759Y-157153234D01*
X200346283Y-156809474D01*
X200344494Y-156804307D01*
X200069249Y-155950011D01*
X200067685Y-155944769D01*
X199829777Y-155079333D01*
X199828442Y-155074028D01*
X199628327Y-154199096D01*
X199627223Y-154193739D01*
X199465265Y-153310916D01*
X199464395Y-153305515D01*
X199438623Y-153119970D01*
X199340910Y-152416511D01*
X199340276Y-152411083D01*
X199255493Y-151517540D01*
X199255095Y-151512084D01*
X199209176Y-150615723D01*
X199209015Y-150610256D01*
X199202044Y-149712752D01*
X199202120Y-149707282D01*
X199219877Y-149209428D01*
X199234112Y-148810295D01*
X199234426Y-148804834D01*
X199269872Y-148357475D01*
X199305319Y-147910110D01*
X199305868Y-147904673D01*
X199415531Y-147013847D01*
X199416317Y-147008434D01*
X199564538Y-146123221D01*
X199565558Y-146117847D01*
X199752072Y-145239863D01*
X199753320Y-145234557D01*
X199792807Y-145081664D01*
X199977753Y-144365543D01*
X199979234Y-144360281D01*
X200037417Y-144169597D01*
X200241181Y-143501800D01*
X200242890Y-143496607D01*
X200541850Y-142650311D01*
X200543784Y-142645194D01*
X200608809Y-142483797D01*
X200879187Y-141812693D01*
X200881336Y-141807674D01*
X200941979Y-141674183D01*
X201252577Y-140990467D01*
X201254948Y-140985538D01*
X201338271Y-140821436D01*
X201661275Y-140185285D01*
X201663856Y-140180462D01*
X202104566Y-139398541D01*
X202107355Y-139393835D01*
X202581573Y-138631805D01*
X202584563Y-138627225D01*
X203091420Y-137886476D01*
X203094607Y-137882030D01*
X203633125Y-137163999D01*
X203636477Y-137159725D01*
X204184111Y-136492009D01*
X204200123Y-136476815D01*
X204199884Y-136476557D01*
X204205113Y-136471710D01*
X204210852Y-136467487D01*
X204211319Y-136466944D01*
X204213981Y-136461883D01*
X204217176Y-136457549D01*
X204413664Y-136211138D01*
X204484371Y-136122466D01*
X204733377Y-135760283D01*
X204956118Y-135381380D01*
X205151477Y-134987659D01*
X205318472Y-134581096D01*
X205364733Y-134440977D01*
X205455565Y-134165856D01*
X205455569Y-134165841D01*
X205456266Y-134163731D01*
X205564167Y-133737657D01*
X205574617Y-133679297D01*
X205641240Y-133307218D01*
X205641242Y-133307205D01*
X205641634Y-133305015D01*
X205688278Y-132867973D01*
X205703444Y-132440588D01*
X205703870Y-132434928D01*
X205705142Y-132429442D01*
X205705143Y-132428726D01*
X205703154Y-132420003D01*
X205700000Y-132391989D01*
X205700000Y-119537024D01*
X205701953Y-119519818D01*
X205701963Y-119514187D01*
X205705143Y-119500358D01*
X205702011Y-119486517D01*
X205702035Y-119472853D01*
X205702305Y-119464832D01*
X205714859Y-119273295D01*
X205717010Y-119256955D01*
X205759722Y-119042227D01*
X205763988Y-119026306D01*
X205834363Y-118818989D01*
X205840670Y-118803763D01*
X205937501Y-118607408D01*
X205945742Y-118593134D01*
X206067374Y-118411099D01*
X206077407Y-118398023D01*
X206221763Y-118233417D01*
X206233417Y-118221763D01*
X206398023Y-118077407D01*
X206411099Y-118067374D01*
X206593134Y-117945742D01*
X206607408Y-117937501D01*
X206803763Y-117840670D01*
X206818989Y-117834363D01*
X207026306Y-117763988D01*
X207042227Y-117759722D01*
X207256955Y-117717010D01*
X207273295Y-117714859D01*
X207339858Y-117710496D01*
X207466241Y-117702213D01*
X207474692Y-117701943D01*
X207485812Y-117701963D01*
X207499642Y-117705143D01*
X207513482Y-117702011D01*
X207518372Y-117702020D01*
X207536448Y-117700000D01*
X215462977Y-117700000D01*
X215480183Y-117701953D01*
G37*
%TD.AperFunction*%
%TD*%
M02*
